{
  "accessors": [
    {
      "bufferView": 2,
      "componentType": 5126,
      "count": 16315,
      "max": [
        0.2658222019672394,
        0.963357150554657,
        -0.08777628839015961
      ],
      "min": [
        -0.3293337821960449,
        0.9116496443748474,
        -0.41430363059043884
      ],
      "type": "VEC3"
    },
    {
      "bufferView": 2,
      "byteOffset": 195780,
      "componentType": 5126,
      "count": 16315,
      "max": [
        0.9980000257492065,
        0.9986346364021301,
        0.9996792674064636
      ],
      "min": [
        -0.9980000257492065,
        -0.9986346364021301,
        -0.9996792674064636
      ],
      "type": "VEC3"
    },
    {
      "bufferView": 3,
      "componentType": 5126,
      "count": 16315,
      "max": [
        0.9490196108818054,
        0.9490196108818054,
        0.95686274766922,
        1.0
      ],
      "min": [
        0.9490196108818054,
        0.9490196108818054,
        0.95686274766922,
        1.0
      ],
      "type": "VEC4"
    },
    {
      "bufferView": 1,
      "componentType": 5126,
      "count": 16315,
      "max": [
        2.0437328815460205,
        1.0
      ],
      "min": [
        -0.03211333230137825,
        0.0
      ],
      "type": "VEC2"
    },
    {
      "bufferView": 1,
      "byteOffset": 130520,
      "componentType": 5126,
      "count": 16315,
      "max": [
        0.0011043770937249064,
        0.0
      ],
      "min": [
        0.0,
        0.0
      ],
      "type": "VEC2"
    },
    {
      "bufferView": 0,
      "componentType": 5125,
      "count": 80016,
      "type": "SCALAR"
    }
  ],
  "asset": {
    "extras": {
      "author": "Gildas31 (https://sketchfab.com/Gildas31)",
      "license": "CC-BY-4.0 (http://creativecommons.org/licenses/by/4.0/)",
      "source": "https://sketchfab.com/3d-models/runes-7a8e75da51604b978169fb6c3f8047c5",
      "title": "Runes"
    },
    "generator": "Sketchfab-12.67.0",
    "version": "2.0"
  },
  "bufferViews": [
    {
      "buffer": 0,
      "byteLength": 320064,
      "name": "floatBufferViews",
      "target": 34963
    },
    {
      "buffer": 0,
      "byteLength": 261040,
      "byteOffset": 320064,
      "byteStride": 8,
      "name": "floatBufferViews",
      "target": 34962
    },
    {
      "buffer": 0,
      "byteLength": 391560,
      "byteOffset": 581104,
      "byteStride": 12,
      "name": "floatBufferViews",
      "target": 34962
    },
    {
      "buffer": 0,
      "byteLength": 261040,
      "byteOffset": 972664,
      "byteStride": 16,
      "name": "floatBufferViews",
      "target": 34962
    }
  ],
  "buffers": [
    {
      "byteLength": 1233704,
      "uri": "scene.bin"
    }
  ],
  "materials": [
    {
      "doubleSided": true,
      "emissiveFactor": [
        1.0,
        1.0,
        1.0
      ],
      "name": "2f212815f4d3c1a4681afeeaf9c6dc37_brush_Icing",
      "pbrMetallicRoughness": {
        "metallicFactor": 0.0
      }
    }
  ],
  "meshes": [
    {
      "name": "brush_Icing_g0_b0_2f212815f4d3c1a4681afeeaf9c6dc37_brush_Icing_0",
      "primitives": [
        {
          "attributes": {
            "COLOR_0": 2,
            "NORMAL": 1,
            "POSITION": 0,
            "TEXCOORD_0": 3,
            "TEXCOORD_1": 4
          },
          "indices": 5,
          "material": 0,
          "mode": 4
        }
      ]
    }
  ],
  "nodes": [
    {
      "children": [
        1
      ],
      "matrix": [
        1.0,
        0.0,
        0.0,
        0.0,
        0.0,
        2.220446049250313e-16,
        -1.0,
        0.0,
        0.0,
        1.0,
        2.220446049250313e-16,
        0.0,
        0.0,
        0.0,
        0.0,
        1.0
      ],
      "name": "Sketchfab_model"
    },
    {
      "children": [
        2
      ],
      "matrix": [
        1.0,
        0.0,
        0.0,
        0.0,
        0.0,
        0.0,
        1.0,
        0.0,
        0.0,
        -1.0,
        0.0,
        0.0,
        0.0,
        0.0,
        0.0,
        1.0
      ],
      "name": "d525c7a0834d49868c7023402a5c3fd1.fbx"
    },
    {
      "children": [
        3
      ],
      "name": "RootNode"
    },
    {
      "children": [
        4
      ],
      "name": "brush_Icing_g0_b0"
    },
    {
      "mesh": 0,
      "name": "brush_Icing_g0_b0_2f212815f4d3c1a4681afeeaf9c6dc37_brush_Icing_0"
    }
  ],
  "scene": 0,
  "scenes": [
    {
      "name": "Sketchfab_Scene",
      "nodes": [
        0
      ]
    }
  ]
}
